<svg width="71" height="36" viewBox="0 0 71 36" fill="none" xmlns="http://www.w3.org/2000/svg">
    <path fill-rule="evenodd" clip-rule="evenodd" d="M4.272 35.513C1.922 35.513 0 33.591 0 31.241V4.272C0 1.922 1.922 0 4.272 0C6.622 0 8.544 1.922 8.544 4.272V31.241C8.544 33.591 6.622 35.513 4.272 35.513Z" fill="white"/>
    <path fill-rule="evenodd" clip-rule="evenodd" d="M17.2483 35.513C14.8983 35.513 12.9763 33.591 12.9763 31.241V12.763C12.9763 10.414 14.8983 8.491 17.2483 8.491C19.5983 8.491 21.5203 10.414 21.5203 12.763V31.241C21.5203 33.591 19.5983 35.513 17.2483 35.513ZM20.8793 3.631C20.8793 5.661 19.2243 7.316 17.2483 7.316C15.2193 7.316 13.5633 5.661 13.5633 3.631C13.5633 1.655 15.2193 0 17.2483 0C19.2243 0 20.8793 1.655 20.8793 3.631Z" fill="white"/>
    <path fill-rule="evenodd" clip-rule="evenodd" d="M42.0795 31.2406C42.0795 33.5906 40.1575 35.5126 37.8075 35.5126H37.0065C30.7045 35.5126 26.2185 30.5466 26.2185 24.3516V4.59256C26.2185 2.24256 28.1415 0.320557 30.4915 0.320557C32.8405 0.320557 34.7635 2.24256 34.7635 4.59256V8.81156H38.6615C40.7445 8.81156 42.3995 10.4666 42.3995 12.5496C42.3995 14.5786 40.7445 16.2346 38.6615 16.2346H34.7635V24.3516C34.7635 25.6866 35.4575 26.9686 37.0065 26.9686H37.8075C40.1575 26.9686 42.0795 28.8906 42.0795 31.2406Z" fill="white"/>
    <path fill-rule="evenodd" clip-rule="evenodd" d="M70.8984 12.8167V31.5077C70.8984 33.6967 69.0834 35.5127 66.8934 35.5127C65.7184 35.5127 64.6504 34.9787 63.9024 34.2317C61.8734 35.2997 59.6844 35.9397 57.2274 35.9397C49.6974 35.9397 43.5564 29.7987 43.5564 22.2687C43.5564 14.7387 49.6974 8.59766 57.2274 8.59766C59.5774 8.59766 61.7664 9.23866 63.7954 10.3067C64.5434 9.34566 65.6114 8.81166 66.8934 8.81166C69.0834 8.81166 70.8984 10.6267 70.8984 12.8167ZM62.4074 22.2687C62.4074 19.3857 60.1114 17.0887 57.2274 17.0887C54.3434 17.0887 52.0474 19.3857 52.0474 22.2687C52.0474 25.1527 54.3434 27.4487 57.2274 27.4487C60.1114 27.4487 62.4074 25.1527 62.4074 22.2687Z" fill="white"/>
</svg>
